<?xml version="1.0" standalone="no"?>
<!DOCTYPE svg PUBLIC "-//W3C//DTD SVG 20010904//EN"
 "http://www.w3.org/TR/2001/REC-SVG-20010904/DTD/svg10.dtd">
<svg version="1.0" xmlns="http://www.w3.org/2000/svg"
 width="700.000000pt" height="700.000000pt" viewBox="0 0 700.000000 700.000000"
 preserveAspectRatio="xMidYMid meet">
<metadata>
Created by potrace 1.14, written by Peter Selinger 2001-2017
</metadata>
<g transform="translate(0.000000,700.000000) scale(0.100000,-0.100000)"
fill="#000000" stroke="none">
<path d="M2128 5563 c-49 -31 -53 -51 -53 -258 0 -210 5 -234 57 -261 45 -23
93 -18 130 15 l33 29 0 217 0 217 -33 29 c-38 34 -91 39 -134 12z"/>
<path d="M1214 5186 c-44 -19 -64 -53 -64 -105 0 -44 2 -47 143 -189 137 -137
146 -144 190 -149 43 -5 49 -3 82 30 30 30 35 41 35 83 l0 47 -132 135 c-121
122 -174 163 -210 162 -7 -1 -27 -7 -44 -14z"/>
<path d="M3075 5191 c-11 -5 -82 -72 -158 -148 -112 -113 -139 -145 -143 -174
-15 -90 82 -158 164 -115 41 21 269 257 282 291 32 85 -64 182 -145 146z"/>
<path d="M2098 4809 c-242 -32 -451 -205 -535 -441 -34 -100 -42 -245 -19
-352 33 -145 118 -283 234 -375 101 -80 98 -80 167 -16 131 123 290 195 474
216 87 10 101 14 96 28 -4 9 -9 63 -12 121 -11 209 36 346 192 566 7 10 -1 24
-30 55 -148 152 -359 226 -567 198z"/>
<path d="M3195 4689 c-280 -43 -502 -253 -559 -531 -20 -97 -20 -164 0 -253 9
-38 18 -91 21 -116 8 -68 -10 -77 -136 -71 -125 6 -222 -15 -334 -71 -158 -79
-294 -249 -343 -427 -28 -102 -24 -264 9 -365 77 -235 269 -410 502 -460 108
-23 1971 -22 2083 1 419 86 715 436 714 844 0 326 -176 607 -467 746 -119 57
-187 74 -322 81 -114 6 -188 -3 -289 -34 -61 -19 -101 -12 -113 20 -5 12 -15
59 -24 104 -64 341 -403 584 -742 532z"/>
<path d="M818 4253 c-83 -52 -69 -167 25 -202 44 -17 360 -14 402 3 74 31 93
123 36 180 l-31 31 -203 3 c-177 2 -205 0 -229 -15z"/>
<path d="M1298 3422 l-148 -148 0 -46 c0 -39 5 -52 31 -77 26 -27 38 -31 82
-31 l51 0 143 143 143 143 0 50 c-1 74 -41 114 -116 114 -36 0 -48 -10 -186
-148z"/>
<path d="M4650 2323 c-182 -75 -136 -73 -1252 -73 -1028 0 -1056 1 -1163 40
l-30 10 35 -30 c46 -40 180 -105 255 -124 154 -38 213 -41 905 -41 705 0 796
4 956 45 141 36 254 92 344 170 25 22 43 39 40 39 -3 -1 -43 -17 -90 -36z"/>
</g>
</svg>
